<svg xmlns="http://www.w3.org/2000/svg" viewBox="0 0 1600 260" preserveAspectRatio="xMidYMax slice">
  <!-- lop doi xa -->
  <path fill="#cfe9a8" d="M0 158C260 96 520 214 860 140S1380 74 1600 150V260H0z"/>
  <!-- cay tren doi xa -->
  <g fill="#8fcb5e">
    <circle cx="1300" cy="118" r="26"/><circle cx="1336" cy="132" r="18"/>
    <circle cx="330" cy="150" r="20"/><circle cx="1090" cy="136" r="15"/>
  </g>
  <g fill="#7a5a3a"><rect x="1297" y="136" width="6" height="26" rx="2"/><rect x="327" y="164" width="5" height="20" rx="2"/></g>
  <!-- lop doi giua -->
  <path fill="#a4d86e" d="M0 196C230 152 470 236 760 190S1210 132 1600 200V260H0z"/>
  <!-- bui cay -->
  <g fill="#7fc24d">
    <ellipse cx="150" cy="208" rx="34" ry="16"/><ellipse cx="640" cy="202" rx="26" ry="12"/>
    <ellipse cx="1180" cy="196" rx="40" ry="17"/><ellipse cx="1500" cy="210" rx="30" ry="13"/>
  </g>
  <!-- cay tren doi giua -->
  <g fill="#5fae3d">
    <circle cx="470" cy="176" r="30"/><circle cx="502" cy="190" r="21"/>
    <circle cx="1400" cy="166" r="34"/><circle cx="1360" cy="184" r="22"/>
  </g>
  <g fill="#6b4b2e"><rect x="466" y="200" width="7" height="30" rx="3"/><rect x="1396" y="196" width="8" height="34" rx="3"/></g>
  <!-- lop doi gan -->
  <path fill="#74bd45" d="M0 236C360 204 700 254 1020 226S1420 206 1600 238V260H0z"/>
</svg>
